# AST/ASF file generated using VICON BodyLanguage
# -----------------------------------------------
:version 1.10
:name VICON
:units
  mass 1.0
  length 0.45
  angle deg
:documentation
   .ast/.asf automatically generated from VICON data using
   VICON BodyBuilder and BodyLanguage model FoxedUp or BRILLIANT.MOD
:root
   order TX TY TZ RX RY RZ
   axis XYZ
   position 0 0 0  
   orientation 0 0 0 
:bonedata
  begin
     id 1 
     name lhipjoint
     direction 0.660183 -0.676772 0.325788 
     length 2.75133 
     axis 0 0 0  XYZ
  end
  begin
     id 2 
     name lfemur
     direction 0.34202 -0.939693 0  
     length 7.70317  
     axis 0 0 20  XYZ
    dof rx ry rz
    limits (-160.0 20.0)
           (-70.0 70.0)
           (-60.0 70.0)
  end
  begin
     id 3 
     name ltibia
     direction 0.342105 -0.939662 0   
     length 7.18701   
     axis 0 0 20   XYZ
    dof rx
    limits (-10.0 170.0)
  end
  begin
     id 4 
     name lfoot
     direction 0.14163 -0.389126 0.910232   
     length 2.41719   
     axis -90 7.62852e-016 20   XYZ
    dof rx rz
    limits (-45.0 90.0)
           (-70.0 20.0)
  end
  begin
     id 5 
     name ltoes
     direction 1.53533e-011 -4.21926e-011 1   
     length 1.18611   
     axis -90 7.62852e-016 20   XYZ
    dof rx
    limits (-90.0 20.0)
  end
  begin
     id 6 
     name rhipjoint
     direction -0.6658 -0.67229 0.323631   
     length 2.76968  
     axis 0 0 0  XYZ 
  end
  begin
     id 7 
     name rfemur
     direction -0.34202 -0.939693 0   
     length 7.92547   
     axis 0 0 -20   XYZ
    dof rx ry rz
    limits (-160.0 20.0)
           (-70.0 70.0)
           (-70.0 60.0)
  end
  begin
     id 8 
     name rtibia
     direction -0.342022 -0.939692 0   
     length 7.22641   
     axis 0 0 -20   XYZ
    dof rx
    limits (-10.0 170.0)
 end
 begin
     id 9 
     name rfoot
     direction -0.105675 -0.29034 0.951071   
     length 2.48149  
     axis -90 -7.62852e-016 -20   XYZ
    dof rx rz
    limits (-45.0 90.0)
           (-20.0 70.0)
  end
  begin
     id 10 
     name rtoes
     direction -1.5349e-011 -4.21859e-011 1   
     length 1.23343   
     axis -90 -7.62852e-016 -20   XYZ
    dof rx
    limits (-90.0 20.0)
  end
  begin
     id 11 
     name lowerback
     direction 0.0104173 0.993624 -0.112266   
     length 2.00527   
     axis 0 0 0   XYZ
    dof rx ry rz
    limits (-20.0 45.0)
           (-30.0 30.0)
           (-30.0 30.0)
  end
  begin
     id 12 
     name upperback
     direction 0.00733149 0.999856 -0.0152913   
     length 2.01385   
     axis 0 0 0   XYZ
    dof rx ry rz
    limits (-20.0 45.0)
           (-30.0 30.0)
           (-30.0 30.0)
  end
  begin
     id 13 
     name thorax
     direction 0.0026304 0.999318 0.036841   
     length 2.03734   
     axis 0 0 0   XYZ
    dof rx ry rz
    limits (-20.0 45.0)
           (-30.0 30.0)
           (-30.0 30.0)
  end
  begin
     id 14 
     name lowerneck
     direction 0.0293154 0.998757 0.0403082   
     length 1.65303   
     axis 0 0 0   XYZ
    dof rx ry rz
    limits (-20.0 45.0)
           (-30.0 30.0)
           (-30.0 30.0)
  end
  begin
     id 15 
     name upperneck
     direction -0.0376619 0.998184 -0.0470083   
     length 1.60926   
     axis 0 0 0   XYZ
    dof rx ry rz
    limits (-20.0 45.0)
           (-30.0 30.0)
           (-30.0 30.0)
  end
  begin
     id 16
     name head
     direction -0.0170133 0.999635 -0.0209778  
     length 1.73625  
     axis 0 0 0   XYZ
    dof rx ry rz
    limits (-20.0 45.0)
           (-30.0 30.0)
           (-30.0 30.0)
  end
  begin
     id 17 
     name lclavicle
     direction 0.919857 0.39181 -0.0186333  
     length 3.75313  
     axis 0 0 0   XYZ
    dof ry rz
    limits (-20.0 10.0)
           (0.0 20.0)
  end
  begin
     id 18 
     name lhumerus
     direction 1 -4.48988e-011 1.44029e-027   
     length 5.49313   
     axis 180 -30 -90   XYZ
    dof rx ry rz
    limits (-60.0 90.0)
           (-90.0 90.0)
           (-90.0 90.0)
  end
  begin
     id 19
     name lradius
     direction 1 -4.48924e-011 7.46281e-027   
     length 3.29037   
     axis 180 -30 -90   XYZ
    dof rx
    limits (-10.0 170.0)
  end
  begin
     id 20
     name lwrist
     direction 1 -4.48955e-011 2.19879e-026   
     length 1.64519   
     axis -1.34358e-014 90 90   XYZ
    dof ry
    limits (-180.0 0.0)
 end
  begin
     id 21 
     name lhand
     direction 1 -4.48978e-011 4.39747e-026   
     length 0.729656   
     axis -2.80598e-014 90 90   XYZ
    dof rx rz
    limits (-90.0 90.0)
           (-45.0 45.0)
  end
  begin
     id 22 
     name lfingers
     direction 1 -4.49071e-011 8.79411e-026   
     length 0.588268   
     axis -5.61193e-014 90 90   XYZ
    dof rx
    limits (0.0 90.0)
  end
  begin
     id 23
     name lthumb
     direction 0.707107 -6.34817e-011 0.707107   
     length 0.844638   
     axis -90 45 -9.86923e-015   XYZ
    dof rx rz
    limits (-45.0 45.0)
           (-45.0 45.0)
  end
  begin
     id 24 
     name rclavicle
     direction -0.919898 0.388279 0.0550233   
     length 3.7171  
     axis 0 0 0   XYZ 
    dof ry rz
    limits (-10.0 20.0)
           (-20.0 0.0)
  end
  begin
     id 25 
     name rhumerus
     direction -1 -4.48968e-011 9.98372e-028  
     length 5.23684   
     axis 180 30 90   XYZ
    dof rx ry rz
    limits (-90.0 60.0)
           (-90.0 90.0)
           (-90.0 90.0)
  end
  begin
     id 26 
     name rradius
     direction -1 -4.48956e-011 1.01023e-026   
     length 3.38251   
     axis 180 30 90   XYZ
    dof rx
    limits (-10.0 170.0)
  end
  begin
     id 27 
     name rwrist
     direction -1 -4.4892e-011 2.19886e-026   
     length 1.69126   
     axis -1.34358e-014 -90 -90   XYZ
    dof ry
    limits (-180.0 0.0)
  end
  begin
     id 28
     name rhand
     direction -1 -4.49024e-011 4.39727e-026   
     length 0.691454   
     axis -2.80598e-014 -90 -90   XYZ
    dof rx rz
    limits (-90.0 90.0)
           (-45.0 45.0)
  end
  begin
     id 29
     name rfingers
     direction -1 -4.49097e-011 8.79388e-026   
     length 0.557468   
     axis -5.61193e-014 -90 -90   XYZ
    dof rx
    limits (0.0 90.0)
  end
  begin
     id 30
     name rthumb
     direction -0.707107 -6.34938e-011 0.707107   
     length 0.800416   
     axis -90 -45 9.86923e-015   XYZ
    dof rx rz
    limits (-45.0 45.0)
           (-45.0 45.0)
  end
:hierarchy
  begin
    root lhipjoint rhipjoint lowerback
    lhipjoint lfemur
    lfemur ltibia
    ltibia lfoot
    lfoot ltoes
    rhipjoint rfemur
    rfemur rtibia
    rtibia rfoot
    rfoot rtoes
    lowerback upperback
    upperback thorax
    thorax lowerneck lclavicle rclavicle
    lowerneck upperneck
    upperneck head
    lclavicle lhumerus
    lhumerus lradius
    lradius lwrist
    lwrist lhand lthumb
    lhand lfingers
    rclavicle rhumerus
    rhumerus rradius
    rradius rwrist
    rwrist rhand rthumb
    rhand rfingers
  end

#!OML:ASF H:\BabyWalks\Project 1\Capture day 1\Session 1\baby.ASF
:FULLY-SPECIFIED
:DEGREES
35
root -40.1049 17.5646 -2.06996 -9.2869 82.0912 -11.0912
lowerback 14.0287 -1.19462 0.0312361
upperback 3.15518 -1.32549 2.0885
thorax -4.48061 -0.589226 2.40424
lowerneck -4.67192 2.2609 2.51094
upperneck -14.1707 2.37133 -10.3775
head -3.25579 1.6388 -3.63103
rclavicle -2.45499e-014 -7.55382e-015
rhumerus -47.024 13.7296 -84.1188
rradius 43.557
rwrist -0.353101
rhand -7.46006 -16.6267
rfingers 7.12502
rthumb 18.4283 -45.7738
lclavicle -2.45499e-014 -7.55382e-015
lhumerus -51.4696 0.0165262 83.5152
lradius 50.5675
lwrist 4.09998
lhand -5.52919 5.5121
lfingers 7.12502
lthumb 20.2849 34.4728
rfemur 3.16522 9.16527 24.7904
rtibia 19.7019
rfoot -24.5816 -7.41544
rtoes 6.28452
lfemur -19.89 -5.47371 -13.4063
ltibia 31.1563
lfoot -16.628 -12.1514
ltoes 1.04771
36
root -40.1023 17.5654 -2.07057 -9.23633 82.1005 -11.013
lowerback 13.9842 -1.20391 0.0544587
upperback 3.11772 -1.33646 2.08431
thorax -4.49605 -0.595349 2.38812
lowerneck -4.68693 2.24199 2.54486
upperneck -14.1188 2.33283 -10.5452
head -3.23599 1.62293 -3.68692
rclavicle -1.93815e-014 -7.15625e-015
rhumerus -47.0031 13.7446 -84.176
rradius 43.4892
rwrist -0.248237
rhand -7.37107 -16.6217
rfingers 7.12502
rthumb 18.5139 -45.7607
lclavicle -1.93815e-014 -7.15625e-015
lhumerus -51.5522 -0.0700709 83.5743
lradius 50.5564
lwrist 4.09057
lhand -5.25892 5.48104
lfingers 7.12502
lthumb 20.5446 34.4139
rfemur 3.26805 9.22106 24.7944
rtibia 19.5858
rfoot -24.5037 -7.49144
rtoes 6.11279
lfemur -19.8322 -5.48454 -13.4281
ltibia 31.119
lfoot -16.6257 -12.1508
ltoes 1.04932
37
root -40.0997 17.566 -2.07123 -9.18439 82.1085 -10.9284
lowerback 13.9453 -1.22673 0.0671674
upperback 3.09396 -1.36558 2.09231
thorax -4.49878 -0.610149 2.39383
lowerneck -4.7622 2.24504 2.52507
upperneck -14.0234 2.33093 -10.6858
head -3.19237 1.62387 -3.72399
rclavicle -2.48481e-014 -5.56597e-015
rhumerus -46.9352 13.8106 -84.2201
rradius 43.4212
rwrist -0.166133
rhand -7.29973 -16.5965
rfingers 7.12502
rthumb 18.5825 -45.7289
lclavicle -2.48481e-014 -5.56597e-015
lhumerus -51.605 -0.101881 83.6383
lradius 50.5335
lwrist 4.06836
lhand -5.00921 5.42356
lfingers 7.12502
lthumb 20.7846 34.3304
rfemur 3.37618 9.28067 24.7998
rtibia 19.4703
rfoot -24.4356 -7.57159
rtoes 5.94878
lfemur -19.7693 -5.4968 -13.4506
ltibia 31.0829
lfoot -16.6247 -12.1485
ltoes 1.05597
38
root -40.0974 17.5663 -2.07192 -9.12673 82.1169 -10.8374
lowerback 13.9054 -1.26365 0.0669265
upperback 3.08683 -1.41393 2.1148
thorax -4.48201 -0.634151 2.42507
lowerneck -4.904 2.27112 2.44515
upperneck -13.8909 2.36793 -10.7948
head -3.12592 1.64292 -3.73973
rclavicle 7.85199e-015 -7.55382e-015
rhumerus -46.8166 13.9329 -84.2473
rradius 43.3619
rwrist -0.111381
rhand -7.24262 -16.5705
rfingers 7.12502
rthumb 18.6375 -45.6977
lclavicle 7.85199e-015 -7.55382e-015
lhumerus -51.6203 -0.069723 83.7073
lradius 50.5013
lwrist 4.03238
lhand -4.78071 5.36276
lfingers 7.12502
lthumb 21.0041 34.2454
rfemur 3.48298 9.33771 24.8041
rtibia 19.3574
rfoot -24.3759 -7.65013
rtoes 5.80537
lfemur -19.7082 -5.50943 -13.4742
ltibia 31.0497
lfoot -16.6245 -12.1472
ltoes 1.06345
39
root -40.0951 17.5666 -2.07265 -9.06274 82.1246 -10.7357
lowerback 13.864 -1.31172 0.0550475
upperback 3.09757 -1.47756 2.14914
thorax -4.44429 -0.665471 2.47751
lowerneck -5.10412 2.3178 2.31406
upperneck -13.7269 2.44026 -10.8738
head -3.03976 1.67817 -3.73633
rclavicle -5.56597e-015 9.54166e-015
rhumerus -46.6504 14.0982 -84.2563
rradius 43.3058
rwrist -0.0804299
rhand -7.20662 -16.522
rfingers 7.12502
rthumb 18.6721 -45.6459
lclavicle -5.56597e-015 9.54166e-015
lhumerus -51.5969 0.0200699 83.7781
lradius 50.4575
lwrist 3.9789
lhand -4.57752 5.29493
lfingers 7.12502
lthumb 21.1993 34.1558
rfemur 3.59192 9.39447 24.808
rtibia 19.2489
rfoot -24.324 -7.72823
rtoes 5.67275
lfemur -19.6442 -5.52364 -13.4996
ltibia 31.0199
lfoot -16.6251 -12.1438
ltoes 1.06946
40
root -40.0933 17.5665 -2.07338 -9.01518 82.127 -10.6481
lowerback 13.8231 -1.36709 0.0352998
upperback 3.12444 -1.55089 2.19477
thorax -4.38878 -0.701418 2.5475
lowerneck -5.45943 2.38198 2.08386
upperneck -13.1858 2.61333 -10.6049
head -3.17917 1.71828 -3.98799
rclavicle 1.39149e-014 7.55382e-015
rhumerus -46.4426 14.2977 -84.2464
rradius 43.2604
rwrist -0.0797723
rhand -7.1861 -16.4777
rfingers 7.12502
rthumb 18.6918 -45.5996
lclavicle 1.39149e-014 7.55382e-015
lhumerus -51.5355 0.161389 83.8488
lradius 50.4031
lwrist 3.9061
lhand -4.40426 5.22415
lfingers 7.12502
lthumb 21.3657 34.0662
rfemur 3.69841 9.44799 24.8143
rtibia 19.147
rfoot -24.2771 -7.79975
rtoes 5.54485
lfemur -19.5804 -5.53599 -13.5215
ltibia 30.9949
lfoot -16.6281 -12.1378
ltoes 1.07417
41
root -40.0918 17.5663 -2.07415 -8.96432 82.1261 -10.5542
lowerback 13.7818 -1.42463 0.0100789
upperback 3.16323 -1.62732 2.24525
thorax -4.31987 -0.738858 2.62579
lowerneck -5.73522 2.45802 1.87724
upperneck -13.0055 2.73642 -10.6316
head -3.05832 1.77886 -3.9436
rclavicle -5.00937e-014 3.45885e-014
rhumerus -46.2098 14.5074 -84.2222
rradius 43.2288
rwrist -0.100521
rhand -7.19116 -16.451
rfingers 7.12502
rthumb 18.687 -45.5734
lclavicle -5.00937e-014 3.45885e-014
lhumerus -51.4443 0.334167 83.917
lradius 50.3405
lwrist 3.81132
lhand -4.26139 5.14976
lfingers 7.12502
lthumb 21.5029 33.9762
rfemur 3.80221 9.49934 24.8197
rtibia 19.0536
rfoot -24.2339 -7.86469
rtoes 5.42218
lfemur -19.5156 -5.55086 -13.543
ltibia 30.9748
lfoot -16.6319 -12.1274
ltoes 1.08038
